<?xml version="1.0" ?><!DOCTYPE svg  PUBLIC '-//W3C//DTD SVG 1.1//EN'  'http://www.w3.org/Graphics/SVG/1.1/DTD/svg11.dtd'><svg xmlns="http://www.w3.org/2000/svg" xmlns:xlink="http://www.w3.org/1999/xlink" xmlns:serif="http://www.serif.com/" width="100%" height="100%" viewBox="0 0 64 64" version="1.1" xml:space="preserve" style="fill-rule:evenodd;clip-rule:evenodd;stroke-linejoin:round;stroke-miterlimit:2;"><g><path d="M61,10.25L3,10.25C1.895,10.25 1,11.145 1,12.25L1,51.75C1,52.855 1.895,53.75 3,53.75L61,53.75C62.105,53.75 63,52.855 63,51.75L63,12.25C63,11.145 62.105,10.25 61,10.25ZM8.824,21.617L30.824,37.617C31.525,38.128 32.475,38.128 33.176,37.617L55.176,21.617C56.069,20.968 56.267,19.716 55.617,18.824C54.968,17.931 53.716,17.733 52.824,18.383L32,33.527L11.176,18.383C10.284,17.733 9.032,17.931 8.383,18.824C7.733,19.716 7.931,20.968 8.824,21.617Z"/></g></svg>